<svg id="isometric" enable-background="new 0 0 430 430" height="512" viewBox="0 0 430 430" width="512" xmlns="http://www.w3.org/2000/svg"><g><path d="m382.9 326.4-111-50.2c-.7-.3-1.4-.4-2.2-.2-.2.1-.5.1-.7.2l-35.6 16.1-35.4-16.1c-.5-.2-1-.3-1.5-.3s-1 .1-1.4.3l-37 16.7c-2.7 1.1-2.7 5.3 0 6.4 0 0 29.9 13.5 29.9 13.5l-29.9 13.5c-1.3.6-2.1 1.8-2.1 3.2s.8 2.6 2.1 3.2l66.9 30.3-28.5 13-108.8-49.2c-1.1-.9-3-1-4.1-.1l-36.5 16.5c-1.3.6-2.1 1.8-2.1 3.2s.8 2.6 2.1 3.2l111 50.2c.9.4 2 .4 2.9 0l35.6-16.1 35.6 16.1c.5.2.9.3 1.4.3s1-.1 1.4-.3l37-16.7c2.7-1.1 2.7-5.3 0-6.4 0 0-29.9-13.5-29.9-13.5l29.9-13.5c1.3-.6 2.1-1.8 2.1-3.2s-.8-2.6-2.1-3.2l-67-30.4 28.5-12.9 109.6 49.5c.9.4 2 .4 2.9 0l37-16.7c2.6-1.1 2.7-5.3-.1-6.4zm-223.4 66.3-102.5-46.4 25-11.3v11.4c0 1.9 1.6 3.5 3.5 3.5s3.5-1.6 3.5-3.5v-11.4l99 44.7zm102.5-12.9-28.5 12.9-28.5-12.9 25-11.3v11.5c0 1.9 1.6 3.5 3.5 3.5s3.5-1.6 3.5-3.5v-11.5zm0-33.5-28.5 12.9-65.5-29.6 25-11.3v11.5c0 1.9 1.6 3.5 3.5 3.5s3.5-1.6 3.5-3.5v-11.5zm-65.5-37.3-28.5-12.8 25-11.3v11.5c0 1.9 1.6 3.5 3.5 3.5s3.5-1.6 3.5-3.5v-11.5l25 11.3zm148 33.5-102.5-46.3 25-11.3v11.5c0 1.9 1.6 3.5 3.5 3.5s3.5-1.6 3.5-3.5v-11.5l99 44.8z"/><path d="m48.5 193.7c1.7 0 3-1.3 3-3v-24.2c0-1.7-1.3-3-3-3s-3 1.3-3 3v24.2c0 1.7 1.4 3 3 3z"/><path d="m196.5 216c1.7 0 3-1.3 3-3v-14.2c0-1.7-1.3-3-3-3s-3 1.3-3 3v14.2c0 1.7 1.3 3 3 3z"/><path d="m344.5 220c1.7 0 3-1.3 3-3v-52.2c0-1.7-1.3-3-3-3s-3 1.3-3 3v52.2c0 1.6 1.3 3 3 3z"/><path d="m341.5 244c0 1.7 1.3 3 3 3s3-1.3 3-3v-9.1c0-1.7-1.3-3-3-3s-3 1.3-3 3z"/><path d="m159.5 239.3c1.7 0 3-1.3 3-3v-21.2c0-1.7-1.3-3-3-3s-3 1.3-3 3v21.2c0 1.6 1.3 3 3 3z"/><path d="m156.5 263.3c0 1.7 1.3 3 3 3s3-1.3 3-3v-9.1c0-1.7-1.3-3-3-3s-3 1.3-3 3z"/><path d="m384.5 150.1c0-1.7-1.3-3-3-3s-3 1.3-3 3v14.2c0 1.7 1.3 3 3 3s3-1.3 3-3z"/><path d="m381.5 178.5c-1.7 0-3 1.3-3 3s1.3 3 3 3 3-1.3 3-3c0-1.6-1.4-3-3-3z"/><circle cx="196.5" cy="230.2" r="3"/><path d="m48.5 210.9c1.7 0 3-1.3 3-3s-1.3-3-3-3-3 1.3-3 3 1.4 3 3 3z"/><path d="m383.6 80.6-111-50.2c-.7-.3-1.4-.4-2.1-.4s-1.4.1-2.1.4l-34.9 15.8-34.9-15.8c-.7-.3-1.4-.4-2.1-.4s-1.4.1-2.1.4l-37 16.7c-1.8.8-2.9 2.6-2.9 4.6v59.2l-66.9-30.3c-.7-.3-1.4-.4-2.1-.4s-1.4.1-2.1.4l-37 16.7c-1.8.8-2.9 2.6-2.9 4.6v41.8c0 2 1.1 3.7 2.9 4.6l111 50.2c.7.3 1.4.4 2.1.4s1.4-.1 2.1-.4l34.9-15.8 34.9 15.8c.7.3 1.4.4 2.1.4s1.4-.1 2.1-.4l37-16.7c1.8-.8 2.9-2.6 2.9-4.6v-59.2l66.9 30.3c.7.3 1.4.4 2.1.4s1.4-.1 2.1-.4l37-16.7c1.8-.8 2.9-2.6 2.9-4.6v-41.8c0-2-1.2-3.8-2.9-4.6zm-118 21.3-32.1 14.5-69.1-31.3 3.5-1.6 28.7-13c20.3 9.3 48.8 22.2 69 31.4zm-34.1-19.8-2.1-.9-28.1-12.7 30.1-13.6v27.2zm-35-44.9 32.1 14.5-32.1 14.5-32.1-14.5zm-35 17.6 30.1 13.6-28.1 12.7-2.1.9v-27.2zm-4 136-107-48.4v-37.4l107 48.4zm-104.1-88.9 32.1-14.5 73 33c.1.1 33 14.9 33.1 15l-32.1 14.5zm141.1 74-33 14.9v-37.4l33-14.9zm-33-58.6v-29l67.1 30.4-32.1 14.5zm70 73.5-33-14.9v-37.4l33 14.9zm-30.1-55.4 32.1-14.5 32.1 14.5-32.1 14.5zm67.1 40.5-33 14.9v-37.4l33-14.9zm0-65.7v22l-30.1-13.6 30.1-13.6zm74 30.4-70-31.6v-7c0-.7-.4-1.3-.9-1.7-.3-.2-35.8-16.2-36.1-16.3v-29.2l107 48.4zm-104.1-88.9 32.1-14.5 106.1 48-32.1 14.5zm141.1 74-33 14.9v-37.4l33-14.9z"/></g></svg>